<?xml version="1.0" encoding="UTF-8" standalone="no"?>
<!-- Created with Inkscape (http://www.inkscape.org/) -->
<svg xmlns:dc="http://purl.org/dc/elements/1.1/" xmlns:cc="http://web.resource.org/cc/" xmlns:rdf="http://www.w3.org/1999/02/22-rdf-syntax-ns#" xmlns:svg="http://www.w3.org/2000/svg" xmlns="http://www.w3.org/2000/svg" xmlns:sodipodi="http://sodipodi.sourceforge.net/DTD/sodipodi-0.dtd" xmlns:inkscape="http://www.inkscape.org/namespaces/inkscape" width="551.15002" height="341.76001" id="svg2" sodipodi:version="0.32" inkscape:version="0.45.1" version="1.0" sodipodi:docbase="C:\Documents and Settings\Owner\Desktop" sodipodi:docname="Crest of Hyrule.svg" inkscape:output_extension="org.inkscape.output.svg.inkscape">
  <defs id="defs4"/>
  <sodipodi:namedview id="base" pagecolor="#ffffff" bordercolor="#666666" borderopacity="1.0" gridtolerance="10000" guidetolerance="10" objecttolerance="10" inkscape:pageopacity="0.0" inkscape:pageshadow="2" inkscape:zoom="0.98994949" inkscape:cx="323.30212" inkscape:cy="198.78916" inkscape:document-units="px" inkscape:current-layer="layer1" width="551.15px" height="341.76px" inkscape:window-width="1440" inkscape:window-height="844" inkscape:window-x="-4" inkscape:window-y="-4"/>
  <metadata id="metadata7">
    <rdf:RDF>
      <cc:Work rdf:about="">
        <dc:format>image/svg+xml</dc:format>
        <dc:type rdf:resource="http://purl.org/dc/dcmitype/StillImage"/>
      </cc:Work>
    </rdf:RDF>
  </metadata>
  <g inkscape:label="Layer 1" inkscape:groupmode="layer" id="layer1" transform="translate(-155.30316,-66.002876)">
    <path style="fill:#ffff00" d="M 326.38204,373.61696 L 309.5962,348.18085 L 310.28944,340.78291 L 310.98269,333.38496 L 316.12787,329.49976 C 321.22734,325.64908 321.37522,325.60869 332.77305,324.95407 C 339.09805,324.59081 349.98399,324.25331 356.96403,324.20407 C 363.97327,324.15463 369.92322,323.6806 370.25408,323.14526 C 370.58356,322.61214 372.17634,314.67092 373.79358,305.4981 C 375.41083,296.32528 376.85531,288.72582 377.00354,288.6104 C 377.15177,288.49499 380.01693,287.48889 383.37056,286.37462 L 389.46808,284.3487 L 393.12056,287.79461 C 395.12943,289.68986 396.77305,291.5994 396.77305,292.03804 C 396.77305,292.47668 393.35374,300.35134 389.17459,309.53728 L 381.57613,326.23899 L 384.23883,334.7792 C 385.70332,339.47632 386.76012,343.42391 386.58729,343.55162 C 386.41446,343.67934 381.94662,347.23325 376.65877,351.4492 C 371.37092,355.66515 366.81037,359.11456 366.52421,359.11456 C 366.23806,359.11456 367.30199,354.97427 368.8885,349.91392 C 370.475,344.85357 371.77305,340.19922 371.77305,339.57094 C 371.77305,338.792 365.09254,339.56874 350.77305,342.01259 C 339.22305,343.98378 329.78135,346.05062 329.79149,346.60557 C 329.80164,347.16051 332.94391,359.05978 336.77433,373.04839 C 340.60475,387.03699 343.61029,398.61065 343.45331,398.76764 C 343.29632,398.92462 335.61425,387.60682 326.38204,373.61696 z M 519.21108,396.67296 C 519.59402,395.05508 522.79775,383.14821 526.33048,370.21324 C 529.86321,357.27828 532.4205,346.41091 532.01334,346.06352 C 530.90891,345.12121 491.78723,338.76705 491.13091,339.42337 C 490.82023,339.73405 492.00919,344.32008 493.77305,349.61456 C 495.53691,354.90904 496.82098,359.39654 496.62656,359.58678 C 496.36244,359.84522 478.22336,345.82151 475.89359,343.55769 C 475.68489,343.3549 476.69959,339.38679 478.14849,334.73967 L 480.78285,326.29036 L 473.27795,309.72356 C 469.15025,300.61182 465.77305,292.50503 465.77305,291.70847 C 465.77305,289.92806 472.60541,284.14675 474.15254,284.61803 C 483.31107,287.40786 485.74852,288.48593 486.1611,289.92938 C 486.42603,290.85623 487.83403,298.58899 489.28999,307.11329 C 490.74595,315.6376 492.14575,322.8206 492.40067,323.07551 C 492.65559,323.33043 503.68891,323.89125 516.91916,324.32177 L 540.97415,325.10455 L 546.1236,329.1915 C 551.64248,333.57165 552.46465,335.4207 552.65474,343.87985 C 552.77159,349.08019 552.57418,349.44403 536.64928,373.37985 C 527.78121,386.70894 520.07311,398.06456 519.52018,398.61456 C 518.84687,399.28429 518.74479,398.64302 519.21108,396.67296 z M 428.78822,378.86456 C 427.41636,372.04951 421.60134,349.67005 416.20309,330.42995 L 412.78442,318.24533 L 418.61161,312.68714 L 424.43879,307.12895 L 423.96972,301.37176 C 423.63233,297.23077 422.71062,294.4613 420.68645,291.50647 C 417.47978,286.82547 407.82511,278.1881 403.08646,275.76096 C 401.33384,274.86326 399.66135,273.74284 399.36981,273.27112 C 398.97611,272.6341 429.47321,219.08106 431.23029,217.32399 C 431.39839,217.15589 434.78765,222.96463 438.76198,230.2323 C 442.73632,237.49997 449.76467,249.89159 454.38055,257.76922 C 458.99642,265.64686 462.77305,272.51268 462.77305,273.02659 C 462.77305,273.5405 459.73555,275.98987 456.02305,278.46964 C 436.24612,291.67965 432.72296,302.84699 444.87006,313.82117 C 447.56884,316.25936 448.65785,317.94756 448.22545,319.02274 C 447.87334,319.89824 445.35797,329.61456 442.63573,340.61456 C 439.91348,351.61456 436.62442,363.98956 435.32671,368.11456 C 434.02899,372.23956 432.64744,377.75206 432.25659,380.36456 C 431.86575,382.97706 431.20855,385.11456 430.79615,385.11456 C 430.38375,385.11456 429.48018,382.30206 428.78822,378.86456 z M 336.4575,289.71857 L 318.64195,283.46786 L 340.4575,265.13292 C 352.45605,255.04871 362.9268,246.19939 363.72584,245.46777 C 364.97203,244.32672 364.10502,243.10491 357.62904,236.87606 C 353.47677,232.88223 349.26895,228.35446 348.27833,226.81433 C 347.28772,225.27421 345.9185,224.2285 345.23563,224.49054 C 344.55277,224.75259 329.99023,234.48118 312.87444,246.10965 L 281.75483,267.25232 L 258.25875,251.48863 C 245.3359,242.81861 235.1025,235.43768 235.51786,235.08657 C 235.93321,234.73546 254.27305,228.92494 276.27305,222.17429 C 298.27305,215.42365 320.40006,208.58882 325.44418,206.98579 L 334.61531,204.07118 L 332.23414,198.21109 C 330.9245,194.98803 329.54655,189.36014 329.17204,185.70467 C 328.79752,182.04919 328.17725,178.86437 327.79366,178.6273 C 327.41006,178.39022 300.87068,185.62505 268.81726,194.7047 C 236.76383,203.78435 210.41535,211.07846 210.26508,210.91385 C 209.5609,210.1425 175.88844,156.68245 176.06813,156.6211 C 176.18083,156.58262 207.77305,156.90681 246.27305,157.34152 C 284.77305,157.77623 319.13706,158.0155 322.63751,157.87323 L 329.00198,157.61456 L 331.29698,149.61456 C 332.55923,145.21456 333.74523,140.72094 333.93252,139.62875 C 334.26278,137.70284 331.73969,137.44648 250.27305,131.12875 L 166.27305,124.61456 L 165.72876,101.11455 C 165.4294,88.189554 165.31687,77.427074 165.4787,77.197944 C 165.64053,76.968804 207.56668,85.474404 258.64793,96.099264 L 351.52291,115.4172 L 358.03431,108.51587 C 361.61557,104.72014 366.73435,100.05391 369.40937,98.146454 L 374.27305,94.678364 L 368.42051,101.14645 C 359.84631,110.62245 354.4751,118.63764 350.96666,127.19194 C 347.17166,136.44493 346.21606,140.60313 344.76579,154.17448 C 343.80967,163.12171 343.88847,166.09971 345.28179,173.67448 C 349.01212,193.95443 355.42718,209.61082 363.59702,218.37407 C 371.61401,226.97337 392.04406,241.11456 396.45063,241.11456 C 397.17796,241.11456 397.77305,241.40479 397.77305,241.75951 C 397.77305,243.00127 389.30503,256.11456 388.50315,256.11456 C 388.05777,256.11456 385.95508,255.22775 383.83051,254.14387 L 379.96764,252.17318 L 368.12144,274.14387 C 361.60602,286.22775 355.82474,296.08187 355.27414,296.04192 C 354.72354,296.00197 346.25605,293.15646 336.4575,289.71857 z M 493.22677,274.1547 L 481.31179,252.19483 L 477.08438,254.67226 L 472.85698,257.14968 L 469.46676,251.84993 C 465.42435,245.53062 463.4895,242.0036 463.94203,241.77891 C 480.35901,233.62778 486.42947,229.47348 496.03474,219.81638 C 503.92272,211.88584 508.28529,203.90831 512.18437,190.28471 C 517.58106,171.42835 518.26073,157.72726 514.66946,140.18942 C 511.902,126.67462 503.04125,111.31281 491.33751,99.739004 C 486.2242,94.682464 485.81695,94.045574 488.74093,95.678214 C 490.64826,96.743204 496.3232,101.55766 501.3519,106.37702 L 510.495,115.1395 L 601.84445,96.127024 C 652.08664,85.670164 694.01717,77.114554 695.02339,77.114554 C 696.76367,77.114554 696.8199,78.272614 696.17662,100.86455 C 695.80467,113.92706 695.44921,124.66546 695.3867,124.72767 C 695.32419,124.78988 658.82305,127.61701 614.27305,131.01017 C 569.72305,134.40333 531.84591,137.40369 530.10162,137.67763 C 527.02965,138.16008 526.96232,138.27666 527.95462,141.39513 C 528.51806,143.16581 529.82205,147.49141 530.85238,151.00755 C 531.88271,154.5237 532.8741,157.54894 533.05546,157.7303 C 533.23683,157.91167 567.55998,157.6625 609.32913,157.17661 C 651.09829,156.69071 685.39643,156.41385 685.54722,156.56136 C 685.98154,156.98623 651.80063,210.58273 650.8953,210.89643 C 650.44789,211.05146 624.02777,203.77721 592.18392,194.73144 C 556.53489,184.60474 534.04626,178.6725 533.66211,179.29407 C 533.31896,179.84929 532.76557,182.91202 532.43235,186.10014 C 532.09912,189.28826 530.86643,194.4627 529.69303,197.5989 C 528.51962,200.7351 527.9451,203.64278 528.41631,204.06043 C 528.88752,204.47807 550.87305,211.4546 577.27305,219.56382 C 603.67305,227.67305 625.6255,234.63933 626.05628,235.04444 C 626.99575,235.92796 581.96463,266.55608 579.78895,266.51338 C 578.95521,266.49701 564.19497,256.90971 546.98842,245.20826 L 515.70379,223.9329 L 513.58372,226.77373 C 512.41769,228.33619 508.11541,232.9092 504.02311,236.93599 C 499.93081,240.96277 496.73793,244.37789 496.92781,244.52515 C 501.59235,248.14254 542.81726,283.3841 542.5929,283.56244 C 541.87655,284.13186 507.09137,296.11456 506.15471,296.11456 C 505.59758,296.11456 499.78002,286.23262 493.22677,274.1547 z M 364.77305,199.24958 C 364.77305,197.80705 430.20272,86.144514 431.20887,85.869934 C 432.04325,85.642234 497.6155,197.52219 497.72747,199.36456 C 497.75254,199.77706 467.84805,200.11456 431.27305,200.11456 C 394.52658,200.11456 364.77305,199.72755 364.77305,199.24958 z M 446.84001,170.92103 C 455.32818,155.96459 462.41855,143.13959 462.59637,142.42103 C 462.85743,141.36617 456.74275,141.11456 430.84637,141.11456 C 413.20605,141.11456 398.77305,141.41656 398.77305,141.78567 C 398.77305,142.9091 430.17218,198.11456 430.81115,198.11456 C 431.13885,198.11456 438.35183,185.87747 446.84001,170.92103 z " id="path2266"/>
  </g>
</svg>