<?xml version="1.0" encoding="UTF-8"?>
<!-- Generator: Adobe Illustrator 16.0.0, SVG Export Plug-In . SVG Version: 6.00 Build 0)  -->
<!DOCTYPE svg PUBLIC "-//W3C//DTD SVG 1.1//EN" "http://www.w3.org/Graphics/SVG/1.1/DTD/svg11.dtd">
<svg version="1.1" id="Layer_1" xmlns="http://www.w3.org/2000/svg" xmlns:xlink="http://www.w3.org/1999/xlink" x="0px" y="0px" width="791.719px" height="849.945px" viewBox="0 0 791.719 849.945" enable-background="new 0 0 791.719 849.945" xml:space="preserve">
<path d="M688.068,248.79C645.602,193.58,471.578,0.002,395.839,0l0,0l0,0c-75.703,0.002-249.728,193.58-292.194,248.771  C-0.86,384.664-5.329,448.322,2.554,477.982c14.219,53.508,74.245,59.006,164.166,59.461c12.398,32.297,12.117,81.608,8.42,97.539  c-0.691,1.53-1.602,3.26-2.621,5.262c-37.377,74.43-19.616,126.271,45.098,175.801c12.307,9.414,26.181,17.225,26.181,17.225  s11.498-3.995,23.295-14.956c9.421-8.769,19.253-25.988,21.466-38.306c10.013,50.941,60.064,69.928,60.064,69.928  s41.791-13.952,47.225-57.166l0,0c5.46,43.224,47.235,57.177,47.235,57.177s50.068-18.988,60.082-69.947  c2.184,12.324,12.018,29.551,21.447,38.324c11.791,10.951,23.276,14.938,23.276,14.938s13.883-7.801,26.199-17.225  c64.723-49.502,82.484-101.361,45.088-175.787c-0.981-2.004-1.93-3.734-2.594-5.256c-3.723-15.939-3.988-65.25,8.41-97.531  c89.914-0.481,149.949-5.971,164.176-59.469C797.043,448.307,792.582,384.674,688.068,248.79z"/>
<path fill="#EE3D96" d="M395.847,28.502L395.847,28.502L395.847,28.502L395.847,28.502L395.847,28.502  C336.63,28.495,20.667,366.941,45.111,458.93c11.215,42.312,139.597,49.677,139.597,49.677s42.813,92.567,29.679,138.639  c-5.117,17.953-58.453,81.703,29.557,137.469l0,0l0,0c0,0,49.503-31.043,52.18-94.108c-0.401,6.5-4.287,91.731,51.479,112.36l0,0  l0,0l0,0c0.026-0.008,48.19-10.215,48.237-106.442c0.008-0.062,0-0.127,0-0.185c0,0.058,0.008,0.121,0.019,0.187  c0.054,96.219,48.217,106.424,48.254,106.44l0,0l0,0l0,0c55.75-20.627,51.854-105.852,51.479-112.361  c2.678,63.066,52.199,94.109,52.199,94.109l0,0l0,0c87.99-55.766,34.627-119.525,29.539-137.484  c-13.125-46.045,29.656-138.641,29.656-138.641s128.393-7.356,139.627-49.65C771.025,366.941,455.072,28.502,395.847,28.502z"/>
<path d="M490.576,576.131c-60.646,0-65.861-25.15-94.327-25.143c-0.129-0.019-0.255,0.02-0.42,0.037  c-0.092,0-0.21-0.045-0.373-0.045c-28.43,0.008-33.655,25.149-94.299,25.149c-63.823-0.008-115.611-59.896-115.593-133.834  c-0.001-69.586,43.758-139.671,134.745-131.832c45.832,3.924,57.941,23.095,75.521,23.086c17.623,0,29.749-19.172,75.564-23.095  c90.986-7.819,134.773,62.257,134.773,131.841C606.168,516.234,554.434,576.123,490.576,576.131z"/>
<path fill="#FFFFFF" d="M484.986,325.066c-39.326,0-73.208,24.614-89.157,60.227c-15.876-35.612-49.786-60.236-89.074-60.236  c-54.529,0.018-98.798,47.438-98.789,105.96c0.01,58.525,44.27,105.972,98.789,105.961c39.288,0.021,73.198-24.604,89.074-60.198  c15.949,35.594,49.829,60.209,89.157,60.209c54.526,0,98.75-47.445,98.731-105.961C583.736,372.494,539.514,325.066,484.986,325.066  z"/>
<path d="M314.337,451.91c-32.27-0.01-58.459-24.726-58.449-55.211c0-30.459,26.17-55.192,58.458-55.201  c32.279,0.018,58.441,24.742,58.451,55.211C372.789,427.178,346.626,451.9,314.337,451.91z"/>
<path d="M477.377,451.893c-32.271,0.009-58.445-24.707-58.436-55.176c0.001-30.478,26.172-55.211,58.436-55.211  c32.295,0,58.441,24.742,58.451,55.211C535.826,427.178,509.666,451.9,477.377,451.893z"/>
<path fill="#B33E96" d="M316.003,418.51c-12.746,0-23.076-9.768-23.084-21.793c-0.002-12.053,10.34-21.811,23.075-21.801  c12.761,0,23.077,9.768,23.075,21.801C339.08,408.76,328.755,418.52,316.003,418.51z"/>
<path fill="#B33E96" d="M475.838,418.51c-12.736-0.01-23.086-9.758-23.104-21.793c0.02-12.053,10.352-21.803,23.096-21.801  c12.764,0,23.096,9.748,23.096,21.783C498.922,408.752,488.592,418.502,475.838,418.51z"/>
<g>
	<g>
		<g>
			<defs>
				<path id="SVGID_1_" d="M395.847,28.502L395.847,28.502L395.847,28.502L395.847,28.502L395.847,28.502      C336.63,28.495,20.667,366.941,45.111,458.93c11.215,42.312,139.597,49.677,139.597,49.677s42.813,92.567,29.679,138.639      c-5.117,17.953-58.453,81.703,29.548,137.461l0.009,0.008l0,0c0,0,49.503-31.043,52.18-94.108      c-0.401,6.5-4.287,91.731,51.479,112.36l0,0l0,0l0,0c0.026-0.008,48.19-10.215,48.237-106.442c0.008-0.062,0-0.127,0-0.185      c0,0.058,0.008,0.121,0.019,0.187c0.054,96.219,48.184,106.422,48.254,106.44l0,0l0,0l0,0      c55.75-20.627,51.854-105.852,51.453-112.354c2.676,63.067,52.225,94.102,52.225,94.102l0,0l0,0      c87.99-55.766,34.627-119.525,29.539-137.484c-13.162-46.045,29.656-138.641,29.656-138.641s128.393-7.356,139.627-49.65      C771.025,366.941,455.072,28.502,395.847,28.502z"/>
			</defs>
			<clipPath id="SVGID_2_">
				<use xlink:href="#SVGID_1_" overflow="visible"/>
			</clipPath>
			<g clip-path="url(#SVGID_2_)">
				<path fill="#D6165C" d="M523.303,783.201c-15.312-3.658-20.885-16.476-19.801-29.994c1.256-15.932,15.701-24.771,30.977-21.129      c15.341,3.668,30.279,21.483,23.459,37.313C552.578,781.873,538.586,786.852,523.303,783.201z"/>
				<path fill="#D6165C" d="M458.953,755.938c0.008,14.847-7.385,19.128-16.508,19.128c-12.551,0.008-18.761-8.785-18.761-19.347      c0-10.561,8.574-21.737,18.753-18.879C451.221,739.324,458.961,745.387,458.953,755.938z"/>
				<path fill="#D6165C" d="M508.5,685.088c-17.953,9.594-27.875,3.424-33.746-7.619c-8.102-15.184-1.512-28.365,11.242-35.166      c12.781-6.826,31.871-3.633,34.982,10.478C523.646,665.025,521.297,678.262,508.5,685.088z"/>
				<path fill="#D6165C" d="M627.715,702.311c0,22.648-16.139,34.746-35.42,37.771c-22.752,3.561-39.965-13.746-39.953-36.385      c-0.002-22.668,19.972-49.576,44.439-45.316C616.035,661.758,627.715,679.662,627.715,702.311z"/>
				<path fill="#D6165C" d="M596.945,605.4c6.674,10.932,4.024,23.795-4.996,30.141c-9.25,6.498-25.892,3.641-32.555-7.283      c-6.646-10.908-2.031-26.699,8.475-32.271C579.678,589.75,590.311,594.484,596.945,605.4z"/>
				<path fill="#D6165C" d="M307.482,674.219c-16.529,8.812-25.67,3.15-31.086-7.02c-7.465-13.982-1.366-26.107,10.377-32.39      c11.762-6.262,29.313-3.331,32.171,9.687C321.438,655.73,319.235,667.928,307.482,674.219z"/>
				<path fill="#D6165C" d="M402.593,696.322c0.011,15.721-11.188,24.131-24.578,26.215c-15.776,2.469-27.747-9.539-27.737-25.26      c-0.001-15.748,13.861-34.402,30.854-31.453C394.52,668.146,402.594,680.592,402.593,696.322z"/>
				<path fill="#D6165C" d="M439.588,623.551c6.381,10.478,3.861,22.812-4.807,28.896c-8.867,6.225-24.814,3.494-31.206-6.955      c-6.344-10.48-1.939-25.607,8.13-30.943C423.039,608.566,433.215,613.1,439.588,623.551z"/>
				<path fill="#D6165C" d="M331.052,722.475c-20.928-4.979-40.666,7.093-42.404,28.875c-1.446,18.488,6.164,36.021,27.074,41.002      c20.918,5.007,40.018-1.803,47.371-18.844C372.396,751.822,351.97,727.48,331.052,722.475z"/>
				<path fill="#D6165C" d="M223.297,696.32c-0.009,15.739-11.178,24.123-24.597,26.198c-15.794,2.484-27.729-9.521-27.737-25.243      c-0.009-15.72,13.864-34.418,30.851-31.451C215.185,668.146,223.279,680.592,223.297,696.32z"/>
				<path fill="#D6165C" d="M233.256,605.4c6.664,10.938,4.022,23.812-4.997,30.121c-9.242,6.51-25.908,3.659-32.536-7.269      c-6.654-10.893-2.049-26.697,8.457-32.268C215.988,589.77,226.621,594.484,233.256,605.4z"/>
				<path fill="#D6165C" d="M266.566,745.086c-0.002,15.766-7.839,20.309-17.525,20.33c-13.354-0.012-19.953-9.342-19.972-20.557      c0.017-11.216,9.158-23.104,19.981-20.072C258.344,727.4,266.564,733.873,266.566,745.086z"/>
			</g>
		</g>
	</g>
</g>
</svg>